<?xml version="1.0" encoding="UTF-8" standalone="no"?>
<!DOCTYPE svg PUBLIC "-//W3C//DTD SVG 1.1//EN" "http://www.w3.org/Graphics/SVG/1.1/DTD/svg11.dtd">
<!-- Created with Vectornator (http://vectornator.io/) -->
<svg height="100%" stroke-miterlimit="10" style="fill-rule:nonzero;clip-rule:evenodd;stroke-linecap:round;stroke-linejoin:round;" version="1.1" viewBox="0 0 850 600" width="100%" xml:space="preserve" xmlns="http://www.w3.org/2000/svg" xmlns:xlink="http://www.w3.org/1999/xlink">
<defs/>
<g id="Layer-1">
<path d="M489 37.5C484.333 39.8333 479.667 43.3333 475 48C470.333 52.6667 465.833 58.3333 461.5 65C457.167 71.6667 451.333 74.8333 444 74.5C436.667 74.1667 429.333 74.5 422 75.5C414.667 76.5 405 79.1667 393 83.5C381 87.8333 373.333 88.6667 370 86C366.667 83.3333 360.833 79.8333 352.5 75.5C344.167 71.1667 338.167 68.5 334.5 67.5C330.833 66.5 327.667 66 325 66C322.333 66 319.833 66.5 317.5 67.5C315.167 68.5 312.667 71 310 75C307.333 79 306 83.3333 306 88C306 92.6667 307 98.3333 309 105C311 111.667 314.667 119.5 320 128.5C325.333 137.5 326.333 147.333 323 158C319.667 168.667 318.333 179.167 319 189.5C319.333 194.667 319.667 199.833 320 205C313.333 205 306.667 205 300 205C286.667 205 279.667 205.667 279 207C278.333 208.333 278.167 209.333 278.5 210C278.833 210.667 286.167 211.167 300.5 211.5C314.833 211.833 322.833 213.833 324.5 217.5C326.167 221.167 326.833 223.5 326.5 224.5C326.167 225.5 319.5 228.167 306.5 232.5C293.5 236.833 286.667 240 286 242C285.667 243 285.333 244 285 245C285.667 245.167 286.333 245.333 287 245.5C288.333 245.833 296 243.5 310 238.5C324 233.5 332.833 233.333 336.5 238C338.333 240.333 340.167 242.667 342 245C340 246.167 338 247.333 336 248.5C332 250.833 328.833 253.5 326.5 256.5C324.167 259.5 323.167 263 323.5 267C323.833 271 325.167 274.833 327.5 278.5C328.667 280.333 329.833 282.167 331 284C309.333 284 287.667 284 266 284C244.333 284 222.667 284 201 284C201 285.333 201 286.667 201 288C201 289.333 201 290.667 201 292C224.167 292 247.333 292 270.5 292C316.833 292 341.667 293 345 295C348.333 297 352.167 297.833 356.5 297.5C360.833 297.167 363.833 296.167 365.5 294.5C367.167 292.833 389 292 431 292C473 292 494.833 292.833 496.5 294.5C498.167 296.167 500 297.333 502 298C504 298.667 507 298.667 511 298C515 297.333 518 296.167 520 294.5C522 292.833 548.5 292 599.5 292C625 292 650.5 292 676 292C675.833 290.667 675.667 289.333 675.5 288C675.167 285.333 651.333 284 604 284C580.333 284 556.667 284 533 284C533.833 282.5 534.667 281 535.5 279.5C537.167 276.5 537.833 271.833 537.5 265.5C537.167 259.167 535.5 254.333 532.5 251C529.5 247.667 525.667 245.833 521 245.5C518.667 245.333 516.333 245.167 514 245C517.333 241.667 520.667 238.333 524 235C530.667 228.333 535.5 221.667 538.5 215C541.5 208.333 550.5 204.5 565.5 203.5C580.5 202.5 588.167 201.167 588.5 199.5C588.667 198.667 588.833 197.833 589 197C581.667 197.167 574.333 197.333 567 197.5C559.667 197.667 552.333 197.833 545 198C545.5 195.167 546 192.333 546.5 189.5C547.5 183.833 553.333 178.833 564 174.5C574.667 170.167 580.167 167.167 580.5 165.5C580.833 163.833 580.333 162.833 579 162.5C577.667 162.167 572 164 562 168C557 170 552 172 547 174C546.833 171.5 546.667 169 546.5 166.5C546.167 161.5 545.333 156.667 544 152C542.667 147.333 539.667 140.333 535 131C530.333 121.667 526.667 115 524 111C521.333 107 519.667 105 519 105C518.667 105 518.333 105 518 105C518.667 100.5 519.333 96 520 91.5C521.333 82.5 521.333 73 520 63C518.667 53 516.333 46 513 42C509.667 38 506 35.6667 502 35C498 34.3333 493.667 35.1667 489 37.5ZM497.5 51C501.167 51.6667 503.833 53.5 505.5 56.5C507.167 59.5 508 64.5 508 71.5C508 78.5 507.5 83.8333 506.5 87.5C506 89.3333 505.5 91.1667 505 93C502.833 91.6667 500.667 90.3333 498.5 89C494.167 86.3333 488.333 83.5 481 80.5C477.333 79 473.667 77.5 470 76C471.5 73.1667 473 70.3333 474.5 67.5C477.5 61.8333 481.167 57.5 485.5 54.5C489.833 51.5 493.833 50.3333 497.5 51ZM339 83C344.333 84.3333 349.333 87 354 91C356.333 93 358.667 95 361 97C356.667 101.667 352.333 106.333 348 111C339.333 120.333 334.5 124.833 333.5 124.5C332.5 124.167 331.167 122.667 329.5 120C327.833 117.333 326 113.5 324 108.5C322 103.5 321.333 98.3333 322 93C322.667 87.6667 324.333 84.3333 327 83C329.667 81.6667 333.667 81.6667 339 83ZM497 162C499.667 162 503 162.667 507 164C511 165.333 514.167 167.667 516.5 171C518.833 174.333 519.833 178.167 519.5 182.5C519.167 186.833 517.667 190.5 515 193.5C512.333 196.5 509.833 198.667 507.5 200C505.167 201.333 503.667 202 503 202C502.667 202 502.333 202 502 202C502 201.333 502 200.667 502 200C502 198.667 502.333 195.833 503 191.5C503.667 187.167 502.667 182.167 500 176.5C497.333 170.833 495 167.333 493 166C492 165.333 491 164.667 490 164C490.5 163.667 491 163.333 491.5 163C492.5 162.333 494.333 162 497 162ZM476 169C476.333 172.333 476.667 175.667 477 179C477.667 185.667 479.5 191.5 482.5 196.5C484 199 485.5 201.5 487 204C484.5 203.5 482 203 479.5 202.5C474.5 201.5 470.833 200 468.5 198C466.167 196 465.5 192.5 466.5 187.5C467.5 182.5 469.333 178.167 472 174.5C473.333 172.667 474.667 170.833 476 169ZM374.5 177C375.667 177 376.833 177 378 177C378 177.333 378 177.667 378 178C378 178.667 377 180 375 182C373 184 371.5 186.333 370.5 189C369.5 191.667 368.833 195 368.5 199C368.167 203 368.667 206.833 370 210.5C371.333 214.167 371.667 216.333 371 217C370.333 217.667 368.167 217.167 364.5 215.5C360.833 213.833 358 212 356 210C354 208 352.667 204.5 352 199.5C351.333 194.5 352 190.5 354 187.5C356 184.5 359.333 182 364 180C368.667 178 372.167 177 374.5 177ZM392 182C394 184 396 186 398 188C402 192 404.5 196.167 405.5 200.5C406.5 204.833 406 208 404 210C402 212 398.667 213.667 394 215C391.667 215.667 389.333 216.333 387 217C388.167 214 389.333 211 390.5 208C392.833 202 393.667 196.167 393 190.5C392.667 187.667 392.333 184.833 392 182ZM441 201C444.333 201 446.333 201.333 447 202C447.667 202.667 448 204 448 206C448 208 447.333 210 446 212C445.333 213 444.667 214 444 215C445.5 215.333 447 215.667 448.5 216C450 216.333 451.5 216.667 453 217C452.833 217.5 452.667 218 452.5 218.5C452.167 219.5 450.167 219.5 446.5 218.5C442.833 217.5 440 218.333 438 221C436 223.667 434.5 224.833 433.5 224.5C433 224.333 432.5 224.167 432 224C432.833 222.833 433.667 221.667 434.5 220.5C436.167 218.167 437 216.333 437 215C437 213.667 436 212.333 434 211C432 209.667 430.833 208.333 430.5 207C430.167 205.667 431 204.333 433 203C435 201.667 437.667 201 441 201ZM330.5 387C328.167 389 306 390 264 390C243 390 222 390 201 390C201 391.5 201 393 201 394.5C201 396 201 397.5 201 399C221.333 399 241.667 399 262 399C302.667 399 323.5 401 324.5 405C325.5 409 329 414 335 420C341 426 345.167 431.833 347.5 437.5C349.833 443.167 352.667 447.833 356 451.5C359.333 455.167 363.167 458.333 367.5 461C371.833 463.667 377.333 466 384 468C390.667 470 398.833 471 408.5 471C418.167 471 426.333 470 433 468C439.667 466 444 464.333 446 463C447 462.333 448 461.667 449 461C449 463.5 449 466 449 468.5C449 473.5 448.333 478.167 447 482.5C445.667 486.833 443.667 490.667 441 494C438.333 497.333 435.667 499.833 433 501.5C430.333 503.167 427 504.5 423 505.5C419 506.5 413.833 506.833 407.5 506.5C401.167 506.167 394.167 504.5 386.5 501.5C378.833 498.5 371.333 493.5 364 486.5C356.667 479.5 350.333 474.667 345 472C339.667 469.333 331.667 466.833 321 464.5C310.333 462.167 302.333 461 297 461C291.667 461 286.5 461.5 281.5 462.5C276.5 463.5 272 465 268 467C264 469 259.667 472.167 255 476.5C250.333 480.833 246.667 485.167 244 489.5C241.333 493.833 239.333 498 238 502C236.667 506 236 510.667 236 516C236 521.333 236.833 526 238.5 530C240.167 534 242.333 537.333 245 540C247.667 542.667 250.333 544.333 253 545C255.667 545.667 259 545.667 263 545C267 544.333 269.667 543.333 271 542C272.333 540.667 273.333 539 274 537C274.667 535 275 530.5 275 523.5C275 516.5 275.833 511.167 277.5 507.5C279.167 503.833 281.5 500.667 284.5 498C287.5 495.333 291.667 493.333 297 492C302.333 490.667 307 490.167 311 490.5C315 490.833 319.833 492 325.5 494C331.167 496 336 498.333 340 501C344 503.667 349.167 508.167 355.5 514.5C361.833 520.833 369.167 526 377.5 530C385.833 534 395.167 536.333 405.5 537C415.833 537.667 424.167 537.167 430.5 535.5C436.833 533.833 444 530.5 452 525.5C460 520.5 465.667 515.333 469 510C472.333 504.667 475 497.667 477 489C479 480.333 479.833 472.333 479.5 465C479.167 457.667 479.333 453.833 480 453.5C480.667 453.167 481.333 453.5 482 454.5C482.667 455.5 484.833 456.667 488.5 458C492.167 459.333 495.833 460 499.5 460C503.167 460 506.667 459.333 510 458C513.333 456.667 517.333 454.167 522 450.5C526.667 446.833 531.667 442 537 436C542.333 430 547.833 425 553.5 421C559.167 417 562.667 413.833 564 411.5C565.333 409.167 566.167 406.5 566.5 403.5C566.833 400.5 585.167 398.833 621.5 398.5C639.667 398.333 657.833 398.167 676 398C675.833 396.667 675.667 395.333 675.5 394C675.167 391.333 656.167 390 618.5 390C580.833 390 560.5 389 557.5 387C554.5 385 550.833 384.167 546.5 384.5C542.167 384.833 538.833 385.833 536.5 387.5C534.167 389.167 503.667 390 445 390C386.333 390 355.667 389.167 353 387.5C350.333 385.833 346.5 384.833 341.5 384.5C336.5 384.167 332.833 385 330.5 387Z" fill="#000000" fill-rule="nonzero" opacity="1" stroke="none"/>
</g>
</svg>
